<?xml version="1.0" encoding="UTF-8"?>
<svg version="1.1" xmlns="http://www.w3.org/2000/svg" width="400" height="400">
<path d="M0 0 C132 0 264 0 400 0 C400 132 400 264 400 400 C268 400 136 400 0 400 C0 268 0 136 0 0 Z " fill="#9FB7C2" transform="translate(0,0)"/>
<path d="M0 0 C11.36815231 6.97286407 18.80426569 18.15076121 22 31 C23.13110642 46.53607934 20.43709918 59.72278061 10.1875 71.875 C1.02843788 81.41353362 -9.89006531 85.89659959 -23.13061523 86.47241211 C-36.93700051 86.65758974 -48.0297818 81.16168828 -58.1171875 72.00390625 C-66.57965101 62.99717642 -70.63417175 51.25856092 -70.47265625 39.05981445 C-69.849175 24.79259809 -63.66718578 13.84143626 -53.5625 4.078125 C-37.71838158 -8.7710686 -17.49044032 -9.20498278 0 0 Z " fill="#FEFEFE" transform="translate(224,99)"/>
<path d="M0 0 C9.47244957 7.88433859 15.12389527 17.00327488 18 29 C19.31603444 43.73652522 16.54007314 55.40699973 7 67 C-0.50805187 75.69710985 -10.19125632 81.82645485 -21.8203125 82.8671875 C-22.53960937 82.91101563 -23.25890625 82.95484375 -24 83 C-24.82242188 83.06445312 -25.64484375 83.12890625 -26.4921875 83.1953125 C-39.75046968 83.77175955 -50.15582261 78.78498318 -59.99609375 70.2734375 C-69.06051697 61.73533563 -73.26236994 51.31106797 -74.23828125 38.9921875 C-74.58326516 24.50286336 -69.57329255 13.77049202 -59.8125 3.3125 C-43.48558058 -12.4097187 -18.13518084 -13.70278041 0 0 Z " fill="#FEFEFE" transform="translate(228,225)"/>
</svg>
